<svg width="24.000000" height="24.000000" viewBox="0 0 24 24" fill="none" xmlns="http://www.w3.org/2000/svg" xmlns:xlink="http://www.w3.org/1999/xlink">
	<desc>
			Created with Pixso.
	</desc>
	<defs/>
	<rect id="Social icon" rx="-0.250000" width="23.500000" height="23.500000" transform="translate(0.250000 0.250000)" fill="#FFFFFF" fill-opacity="0"/>
	<path id="Vector" d="M12 0C5.37 0 0 5.37 0 12C0 18.62 5.37 24 12 24C18.61 24 24 18.62 24 12C24 5.37 18.61 0 12 0ZM19.92 5.53C21.35 7.27 22.21 9.5 22.24 11.9C21.9 11.84 18.52 11.15 15.11 11.58C15.03 11.41 14.96 11.23 14.88 11.04C14.68 10.55 14.44 10.04 14.21 9.56C17.98 8.03 19.7 5.81 19.92 5.53ZM12 1.77C14.6 1.77 16.98 2.74 18.79 4.34C18.61 4.6 17.06 6.67 13.41 8.04C11.73 4.95 9.87 2.43 9.59 2.04C10.36 1.86 11.16 1.77 12 1.77ZM7.63 2.73C7.91 3.09 9.73 5.63 11.44 8.65C6.65 9.93 2.42 9.9 1.96 9.9C2.62 6.72 4.77 4.08 7.63 2.73ZM1.74 12.01C1.74 11.9 1.74 11.8 1.74 11.7C2.18 11.71 7.15 11.77 12.27 10.24C12.57 10.81 12.84 11.4 13.1 11.98C12.97 12.02 12.83 12.06 12.7 12.1C7.41 13.8 4.6 18.46 4.37 18.85C2.74 17.04 1.74 14.64 1.74 12.01ZM12 22.25C9.63 22.25 7.44 21.44 5.71 20.09C5.89 19.71 7.97 15.7 13.75 13.69C13.78 13.67 13.79 13.67 13.82 13.66C15.26 17.4 15.85 20.53 16 21.43C14.77 21.96 13.41 22.25 12 22.25ZM17.71 20.49C17.6 19.87 17.06 16.88 15.72 13.19C18.93 12.68 21.74 13.52 22.09 13.64C21.65 16.49 20.01 18.95 17.71 20.49Z" fill="#98A2B3" fill-opacity="1.000000" fill-rule="evenodd"/>
</svg>
