<svg width="24.000000" height="24.000000" viewBox="0 0 24 24" fill="none" xmlns="http://www.w3.org/2000/svg" xmlns:xlink="http://www.w3.org/1999/xlink">
	<desc>
			Created with Pixso.
	</desc>
	<defs>
		<clipPath id="clip2021_608">
			<rect id="Social icon" rx="-0.500000" width="23.000000" height="23.000000" transform="translate(0.500000 0.500000)" fill="white" fill-opacity="0"/>
		</clipPath>
	</defs>
	<g clip-path="url(#clip2021_608)">
		<path id="Icon" d="M12 0C5.37 0 0 5.38 0 12.02C0 17.33 3.43 21.83 8.2 23.42C8.8 23.53 9.02 23.16 9.02 22.84C9.02 22.56 9.01 21.8 9 20.8C5.67 21.52 4.96 19.19 4.96 19.19C4.42 17.8 3.63 17.43 3.63 17.43C2.54 16.68 3.71 16.7 3.71 16.7C4.92 16.78 5.55 17.93 5.55 17.93C6.62 19.77 8.36 19.24 9.04 18.93C9.15 18.16 9.46 17.63 9.81 17.33C7.14 17.02 4.34 15.99 4.34 11.39C4.34 10.08 4.81 9 5.57 8.16C5.45 7.86 5.04 6.63 5.69 4.98C5.69 4.98 6.7 4.66 8.99 6.21C9.97 5.95 10.98 5.81 12 5.81C13.02 5.81 14.04 5.95 15 6.21C17.29 4.66 18.3 4.98 18.3 4.98C18.95 6.63 18.54 7.86 18.42 8.16C19.18 9 19.65 10.08 19.65 11.39C19.65 16 16.84 17.02 14.17 17.32C14.6 17.69 14.98 18.42 14.98 19.54C14.98 21.15 14.97 22.45 14.97 22.84C14.97 23.16 15.19 23.54 15.8 23.42C18.18 22.62 20.26 21.09 21.73 19.04C23.21 16.99 24 14.54 24 12.02C24 5.38 18.62 0 12 0Z" fill="#98A2B3" fill-opacity="1.000000" fill-rule="evenodd"/>
	</g>
</svg>
