<svg width="24.000000" height="24.000000" viewBox="0 0 24 24" fill="none" xmlns="http://www.w3.org/2000/svg" xmlns:xlink="http://www.w3.org/1999/xlink">
	<desc>
			Created with Pixso.
	</desc>
	<defs>
		<clipPath id="clip2021_609">
			<rect id="Social icon" rx="-0.500000" width="23.000000" height="23.000000" transform="translate(0.500000 0.500000)" fill="white" fill-opacity="0"/>
		</clipPath>
	</defs>
	<rect id="Social icon" rx="-0.500000" width="23.000000" height="23.000000" transform="translate(0.500000 0.500000)" fill="#FFFFFF" fill-opacity="0"/>
	<g clip-path="url(#clip2021_609)">
		<path id="Vector" d="M17.77 10.09C18.31 8.56 19.89 4.14 19.89 2.73C19.89 1.48 19.16 0.44 17.85 0.44C15.75 0.44 13.88 6.61 13.29 8.08C12.84 6.75 10.71 0 8.84 0C7.38 0 6.69 1.07 6.69 2.42C6.69 4.07 8.3 8.36 8.88 10.01C8.58 9.9 8.26 9.81 7.94 9.81C6.84 9.81 5.68 11.17 5.68 12.28C5.68 12.69 5.91 13.28 6.05 13.67C4.32 14.14 3.66 15.29 3.66 17.03C3.65 20.41 6.86 24 11.37 24C16.9 24 20.34 19.84 20.34 14.48C20.34 12.46 20.02 10.64 17.77 10.09ZM16.11 5.06C16.29 4.48 17.1 2.04 17.85 2.04C18.25 2.04 18.36 2.46 18.36 2.79C18.36 3.69 16.55 8.63 16.15 9.73L14.55 9.45L16.11 5.06ZM8.17 2.26C8.17 1.7 8.85 0.12 10.34 4.47L11.96 9.17C11.23 9.11 10.66 9.03 10.3 9.23C9.79 7.88 8.17 3.62 8.17 2.26ZM8.06 11.43C9.43 11.43 11.2 15.87 11.2 16.47C11.2 16.71 10.97 17 10.71 17C9.73 17 7.1 13.4 7.1 12.42C7.11 12.06 7.7 11.43 8.06 11.43ZM16.7 20.17C15.33 21.67 13.59 22.44 11.55 22.44C8.77 22.44 6.57 20.92 5.51 18.3C4.71 16.27 5.69 15.1 6.48 15.1C7.01 15.1 9.02 17.93 9.02 18.53C9.02 18.76 8.66 18.92 8.47 18.92C7.72 18.92 7.42 18.19 6.08 16.51C4.69 17.9 7.04 20.58 8.81 20.58C10.04 20.58 10.83 19.45 10.59 18.61C10.77 18.61 10.98 18.63 11.14 18.59C11.19 19.86 11.57 21.37 13.1 21.48C13.1 21.44 13.19 21.14 13.19 21.13C13.19 20.32 12.69 19.6 12.69 18.77C12.69 17.45 13.71 16.16 14.74 15.41C15.12 15.13 15.57 14.96 16.01 14.8C16.47 14.62 16.95 14.42 17.3 14.08C17.25 13.55 17.03 13.09 16.5 13.09C15.21 13.09 10.85 13.27 10.85 11.23C10.85 10.91 10.86 10.61 11.67 10.61C13.18 10.61 17.02 10.99 18.15 11.98C19 12.73 19.29 17.28 16.7 20.17ZM12.07 14.26C12.53 14.4 13 14.45 13.47 14.54C13.12 14.79 12.81 15.1 12.52 15.44C12.38 15.04 12.22 14.65 12.07 14.26Z" fill="#98A2B3" fill-opacity="1.000000" fill-rule="nonzero"/>
	</g>
</svg>
