<svg width="24.000000" height="24.000000" viewBox="0 0 24 24" fill="none" xmlns="http://www.w3.org/2000/svg" xmlns:xlink="http://www.w3.org/1999/xlink">
	<desc>
			Created with Pixso.
	</desc>
	<defs>
		<clipPath id="clip2021_605">
			<rect id="Social icon" rx="-0.250000" width="23.500000" height="23.500000" transform="translate(0.250000 0.250000)" fill="white" fill-opacity="0"/>
		</clipPath>
	</defs>
	<rect id="Social icon" rx="-0.250000" width="23.500000" height="23.500000" transform="translate(0.250000 0.250000)" fill="#FFFFFF" fill-opacity="0"/>
	<g clip-path="url(#clip2021_605)">
		<path id="Vector" d="M7.55 21.75C16.6 21.75 21.55 14.24 21.55 7.74C21.55 7.53 21.55 7.31 21.54 7.1C22.5 6.4 23.33 5.54 24 4.55C23.1 4.95 22.14 5.21 21.17 5.32C22.2 4.71 22.97 3.74 23.33 2.6C22.37 3.17 21.31 3.58 20.21 3.8C19.47 3.01 18.48 2.48 17.41 2.31C16.35 2.13 15.25 2.32 14.29 2.83C13.34 3.34 12.58 4.15 12.13 5.14C11.68 6.12 11.57 7.23 11.81 8.29C9.86 8.19 7.94 7.68 6.19 6.79C4.45 5.91 2.9 4.66 1.67 3.14C1.04 4.23 0.85 5.51 1.13 6.73C1.41 7.95 2.15 9.02 3.19 9.72C2.41 9.69 1.64 9.48 0.96 9.1L0.96 9.16C0.96 10.3 1.35 11.4 2.07 12.28C2.79 13.16 3.8 13.77 4.91 13.99C4.19 14.19 3.43 14.22 2.69 14.07C3 15.05 3.62 15.91 4.44 16.52C5.26 17.14 6.26 17.48 7.29 17.5C5.54 18.87 3.39 19.61 1.17 19.61C0.78 19.61 0.39 19.58 0 19.53C2.25 20.98 4.87 21.75 7.55 21.75Z" fill="#98A2B3" fill-opacity="1.000000" fill-rule="nonzero"/>
	</g>
</svg>
