<svg width="24.000000" height="24.000000" viewBox="0 0 24 24" fill="none" xmlns="http://www.w3.org/2000/svg" xmlns:xlink="http://www.w3.org/1999/xlink">
	<desc>
			Created with Pixso.
	</desc>
	<defs/>
	<rect id="vuesax/linear/bag-2" rx="-0.500000" width="23.000000" height="23.000000" transform="translate(0.500000 0.500000)" fill="#FFFFFF" fill-opacity="0"/>
	<path id="Vector" d="M7.5 7.67L7.5 6.7C7.5 4.45 9.31 2.24 11.56 2.03C14.24 1.77 16.5 3.88 16.5 6.51L16.5 7.89" stroke="#FFFFFF" stroke-opacity="1.000000" stroke-width="1.500000" stroke-linejoin="round" stroke-linecap="round"/>
	<path id="Vector" d="M14.99 22C19.02 22 19.74 20.39 19.95 18.43L20.7 12.43C20.96 9.99 20.27 8 15.99 8L7.99 8C3.72 8 3.02 9.99 3.29 12.43L4.04 18.43C4.25 20.39 4.97 22 8.99 22L14.99 22Z" stroke="#FFFFFF" stroke-opacity="1.000000" stroke-width="1.500000" stroke-linejoin="round"/>
	<path id="Vector" d="M15.49 12L15.5 12" stroke="#FFFFFF" stroke-opacity="1.000000" stroke-width="2.000000" stroke-linejoin="round" stroke-linecap="round"/>
	<path id="Vector" d="M8.49 12L8.5 12" stroke="#FFFFFF" stroke-opacity="1.000000" stroke-width="2.000000" stroke-linejoin="round" stroke-linecap="round"/>
	<g opacity="0.000000"/>
</svg>
